<svg version="1.1" xmlns="http://www.w3.org/2000/svg" viewBox="0 0 541.1505072811722 221.379914247287">
  <!-- svg-source:excalidraw -->
  <defs>
  </defs>
  <rect x="0" y="0" width="541.1505072811722" height="221.379914247287" fill="transparent"></rect><g><g transform="translate(12.910756515121477 201.75760987281797) rotate(0 76.67553812164513 -93.81995236381738)"><path d="M1.2525347199290993 -2.096534302458167 C1.6852082099765542 -4.5766055967658765, -4.45852268077433 3.2588378005971492, 2.8653422918170692 -13.034887948259712 C10.189207264408468 -29.328613697116573, 30.88759762508174 -72.09418030443291, 45.1957245554775 -99.85888879559934 C59.503851485873255 -127.62359728676577, 82.7700507607311 -184.05850479068854, 88.71410387419164 -179.6231388952583 C94.65815698765218 -175.18777299982807, 82.84024867278833 -98.24264395895104, 80.86004323624074 -73.24669342301786 C78.87983779969315 -48.250742887084684, 77.83436893286805 -42.4164342350016, 76.83287125490605 -29.647435679659246 C75.83137357694406 -16.87843712431689, 71.42491723758478 8.840782747045159, 74.85105716846883 3.367297909036279 C78.27719709935288 -2.106186928972601, 83.8212482418865 -30.540438813591994, 97.38971084021031 -62.48834470771253 C110.95817343853413 -94.43625060183307, 146.45459160072107 -167.18657596769432, 156.26183275841177 -188.32013745568693 M-1.5120420742034915 2.9370361232757567 C-1.3507628790537518 0.6229558213551836, -6.305028931299846 6.395618683497112, 1.3833628940582274 -10.302397165298462 C9.071754719416301 -27.000413014094036, 29.904262755711876 -69.50499299049378, 44.61830887794495 -97.25105896949768 C59.33235500017802 -124.99712494850158, 84.0975485833486 -180.837775888443, 89.66763962745667 -176.7787930393219 C95.23773067156473 -172.7198101902008, 79.8184223016103 -98.31674042701721, 78.03885514259338 -72.89716187477111 C76.25928798357646 -47.47758332252502, 79.4704255771637 -36.64615743954976, 78.9902366733551 -24.261321725845335 C78.5100477695465 -11.876486012140909, 71.28277716000875 7.810431407292684, 75.15772171974182 1.4118524074554442 C79.03266627947488 -4.986726592381796, 89.3050603834788 -30.457885344823197, 102.23990403175354 -62.652795724868774 C115.17474768002828 -94.84770610491435, 143.3930825392405 -170.3571493625641, 152.76678360939025 -191.757609872818" stroke="#000000" stroke-width="4" fill="none"></path></g></g><g><g transform="translate(196.67074086983035 28.380029554331315) rotate(0 5.383277140387861 81.71472037495676)"><path d="M-2.694724907200964 -0.36242515162622757 C-3.63264303735999 5.235124315802617, 2.3917790381424524 4.558146194673114, -8.417045020380918 31.78505378137625 C-19.22586907890429 59.01196136807938, -73.87571332642996 141.15911234377361, -67.54766925834119 162.99902036859257 C-61.21962519025241 184.83892839341152, 18.58787991904905 163.46973841661145, 29.551219388151743 162.82450193028995 C40.514558857254436 162.17926544396846, 13.519728817997581 160.5908090464649, -1.7676324437250226 159.1276014506636 C-17.054993705447625 157.6643938548623, -53.37178898358224 163.72240411040883, -62.17294818218389 154.04525635548217 C-70.97410738078554 144.3681086005555, -58.66382255504047 112.29753533548006, -54.57458763533491 101.06471492110356 C-50.48535271562935 89.83189450672705, -42.60641773400478 91.17453813689472, -37.6375386639505 86.64833386922312 C-32.66865959389622 82.12212960155152, -36.01712395370418 75.66226602927519, -24.761313215009235 73.90748931507392 C-13.505502476314293 72.15271260087265, 17.083009352672796 75.15653390957404, 29.89732576821916 76.11967358401553 C42.71164218376553 77.08281325845702, 53.10240538650061 79.53371616847845, 52.124585278268974 79.68632736172286 C51.14676517003734 79.83893855496727, 34.53214793693465 79.99618653488776, 24.03040511882935 77.035340743482 C13.528662300724049 74.07449495207624, -3.53885842288907 65.68152304216974, -10.885871630362828 61.92125261328831 C-18.232884837836586 58.16098218440688, -18.48831259270567 58.28830458012675, -20.051674126013204 54.47371817019342 C-21.615035659320736 50.659131760260095, -23.416592476100178 48.095698187905725, -20.266040830208027 39.03373415368837 C-17.115489184315877 29.97177011947102, -5.17332274672283 7.10257128357753, -1.1483642506603027 0.10193396488932116 C2.876594245402225 -6.898703353798887, -0.6094034937238151 -1.311893376683873, 3.8837101461671413 -2.9700897584408796 C8.376823786058097 -4.628286140197886, 13.863365602560908 -9.860905592659089, 25.810317588685432 -9.847244325652719 C37.75726957480995 -9.833583058646349, 66.71674459991225 -4.049779839495975, 75.5654220629143 -2.8881221564026576 M1.6221513175999807 -2.6701777852425557 C0.6913160320162012 2.156695507227741, 2.3873765017154724 -0.810023005474072, -9.304422314161364 27.275705705464848 C-20.9962211300382 55.36143441640377, -75.01117363151971 144.12805868969397, -68.52864157766103 165.84419448039097 C-62.04610952380235 187.56033027108796, 19.05027717427602 158.7543121443334, 29.59077000899074 157.5725204496468 C40.131262843705464 156.39072875496018, 10.671473018510351 159.55511199823295, -5.285684569372687 158.75344431227128 C-21.242842157255723 157.95177662630962, -58.01067085515835 161.66891459331117, -66.15217551830747 152.7625143338768 C-74.2936801814566 143.85611407444242, -58.68296904342388 116.34406124644863, -54.13471254826742 105.31504275566502 C-49.586456053110965 94.2860242648814, -44.434169369591004 91.08200342103862, -38.8626365473687 86.58840338917507 C-33.2911037251464 82.09480335731152, -32.36039304423247 80.0666638048805, -20.70551561493363 78.35344256448371 C-9.050638185634796 76.64022132408692, 18.70136893045276 75.60504625977067, 31.06662802842431 76.30907594679431 C43.431887126395864 77.01310563381794, 55.108728395162075 82.69833393290672, 53.48603897289566 82.57762068662552 C51.86334955062925 82.45690744034432, 31.769587986707116 78.144829101365, 21.33049149482582 75.58479646910715 C10.89139500294453 73.02476383684929, -2.0935319991198744 70.60665813835713, -9.148539978392085 67.21742489307836 C-16.203547957664295 63.828191647799585, -19.345417864397746 60.23973473186249, -20.99955638080744 55.24939699743449 C-22.653694897217136 50.259059263006485, -22.758404706721954 47.26418051087178, -19.07337107685026 37.27539848651034 C-15.388337446978568 27.2866164621489, -2.1897775187531447 2.9876039416329556, 1.1106453984227156 -4.683295148734178 C4.411068315598576 -12.35419423910131, -3.077966500318592 -7.850118046502949, 0.7291664262049018 -8.749996055692462 C4.5362993527283955 -9.649874064881974, 10.820328765901989 -11.118714621806118, 23.953442957563677 -10.082563203871251 C37.086557149225364 -9.046411785936384, 70.11043197701244 -4.433066502913991, 79.52785157617502 -2.533087548083256" stroke="#000000" stroke-width="4" fill="none"></path></g></g><g><g transform="translate(286.81307861206375 25.64783745877918) rotate(4.628135424266806 36.7389353490214 90.22076990831644)"><path d="M-2.6800679487267725 -0.24316436313092726 C3.3225915619874686 14.665234420076011, 19.8601433499919 61.793711290135974, 32.62501178048711 91.24738709665834 C45.38988021098231 120.70106290318071, 69.70666524931151 165.3168232255926, 73.90914263424446 176.4788904760033 C78.11162001917741 187.640957726414, 62.277422672122746 167.25574873425066, 57.83987609008477 158.21979059912263 C53.4023295080468 149.1838324639946, 49.384907156326754 132.42242222366235, 47.28386314201663 122.26314166523517 C45.1828191277065 112.103861106808, 46.57751249999289 102.26471560137968, 45.233612004224014 97.2641072485596 C43.889711508455136 92.26349889573952, 40.43298466039213 94.78310494162142, 39.22046016740334 92.25949154831468 C38.00793567441455 89.73587815500795, 36.81341396098797 86.57689444360634, 37.958465046291266 82.1224268887192 C39.10351613159456 77.66795933383207, 39.04688900405557 74.87963309821983, 46.090766679223094 65.53268621899187 C53.134644354390616 56.18573933976391, 71.55785956533629 35.84856781301399, 80.22173109729641 26.040745613351465 C88.88560262925654 16.232923413688937, 97.01966286313974 9.138471537207563, 98.0739958709839 6.685753021016716 C99.12832887882804 4.23303450482587, 91.73237529963278 6.703075553352634, 86.54772914436128 11.324434516206384 C81.36308298908979 15.945793479060136, 74.60552826352392 21.084652810667954, 66.96611893935493 34.413906798139216 C59.326709615185926 47.74316078561048, 56.16458453919749 66.4881064667056, 40.71127319934728 91.29995844103397 C25.257961859497073 116.11181041536233, -14.609000617074864 167.79294905401764, -25.753749099746347 183.28501864410936 M1.818682018863202 -2.8434788274765017 C7.611829533467162 11.111355716387429, 18.433365584414865 56.870855787595104, 30.28550335526626 87.23619326114654 C42.13764112611766 117.60153073469797, 68.46870209914306 167.03760144392652, 72.93150864397158 179.3485460138321 C77.3943151888001 191.6594905837377, 61.80279986876749 170.4184079726537, 57.062342624237395 161.10186068058013 C52.321885379707304 151.78531338850655, 47.095670776241406 133.2797857904434, 44.48876517679105 123.44926226139069 C41.88185957734069 113.61873873233796, 42.00091125635291 106.61275052229563, 41.42090902753527 102.11871950626373 C40.840906798717626 97.62468849023183, 40.79998552809171 99.85532300154367, 41.00875180388522 96.48507616519927 C41.217518079678726 93.11482932885488, 41.18471780164008 87.43791989485423, 42.67350668229631 81.89723848819733 C44.16229556295254 76.35655708154043, 44.59311285765858 72.5179370355606, 49.94148508782259 63.240987725257874 C55.2898573179866 53.96403841495514, 66.68721894194063 36.515035881996155, 74.7637400632804 26.23554262638092 C82.84026118462016 15.956049370765685, 95.646487367848 4.130804975827535, 98.40061181586115 1.564028191566467 C101.15473626387431 -1.0027485926946005, 96.63312425759955 4.4093589003880815, 91.28848675135937 10.834881920814514 C85.9438492451192 17.260404941240946, 74.92897301162259 26.59275494734446, 66.33278677842013 40.11716631412506 C57.73660054521767 53.641577680905655, 54.936157384353486 68.20091499169668, 39.71136935214462 91.98135012149811 C24.48658131993576 115.76178525129954, -14.40202410621732 168.1427713251114, -25.01594141483307 182.79977709293365" stroke="#000000" stroke-width="4" fill="none"></path></g></g><g><g transform="translate(422.90826271698637 202.19064745892803) rotate(0.42502273535455704 45.65699633302768 -86.48379246593393)"><path d="M-5.456093828830024 6.914834562299145 C0.5607070806320342 -22.094216075672595, 15.063117725450056 -141.30083066306196, 32.94346642730832 -167.94654906947494 C50.82381512916659 -194.59226747588792, 107.44130721956496 -151.53236552394975, 101.82599838231958 -152.95947587617874 C96.2106895450742 -154.38658622840774, 18.95582895743344 -172.0220539131841, -0.7483865961639355 -176.50921118284882 C-20.45260214976131 -180.99636845251354, -14.415641174655132 -178.93545161173265, -16.399294939264657 -179.88241949416698 M-1.6135601266502348 4.899172482920182 C4.2700105678981375 -23.87891558692742, 13.818091436746972 -138.65814598296265, 32.039232725408674 -165.81157346736967 C50.26037401407038 -192.9650009517767, 112.87350029232604 -156.70055027296195, 107.71328760531998 -158.02139242352186 C102.55307491831391 -159.34223457408177, 21.02980938990904 -170.40593121651122, 1.0779566033722694 -173.7366263707292 C-18.873896183164504 -177.06732152494718, -9.036950078225107 -176.13753583806772, -11.99782911390066 -178.00556334882975" stroke="#000000" stroke-width="4" fill="none"></path></g></g></svg>